<svg xmlns="http://www.w3.org/2000/svg" width="140.762" height="19.168" viewBox="0 0 140.762 19.168">
  <g id="logo2" transform="translate(-560.746 -540.422)">
    <g id="Group_278" data-name="Group 278" transform="translate(560.746 540.422)">
      <path id="Path_382" data-name="Path 382" d="M22326.9,970.967h7.873l-3.924,6.405Z" transform="translate(-22319.078 -970.967)" fill="#ff5c00"/>
      <g id="Group_252" data-name="Group 252" transform="translate(0 6.375)">
        <path id="Path_378" data-name="Path 378" d="M22326.9,970.967h7.873l-3.924,6.405Z" transform="translate(-22326.904 -964.58)" fill="#ff007a"/>
        <path id="Path_379" data-name="Path 379" d="M0,0H7.872L3.949,6.405Z" transform="translate(7.873 6.405) rotate(-180)" fill="#d1006f"/>
      </g>
      <g id="Group_249" data-name="Group 249" transform="translate(15.689 6.375)">
        <path id="Path_386" data-name="Path 386" d="M22334.777,970.967h-7.873l3.928,6.405Z" transform="translate(-22326.904 -964.58)" fill="#f50017"/>
        <path id="Path_385" data-name="Path 385" d="M0,6.405H7.872L3.947,0Z" transform="translate(0)" fill="#cd0021"/>
      </g>
      <path id="Path_387" data-name="Path 387" d="M0,6.405H7.872L3.947,0Z" transform="translate(7.785 12.762)" fill="#ff9e00"/>
      <g id="Group_250" data-name="Group 250" transform="translate(3.912 0)">
        <path id="Path_381" data-name="Path 381" d="M22326.9,970.967h7.873l-3.924,6.405Z" transform="translate(-22326.904 -964.58)" fill="#ff9e00"/>
        <path id="Path_380" data-name="Path 380" d="M0,0H7.872L3.949,6.405Z" transform="translate(7.873 6.405) rotate(-180)" fill="#ff7f00"/>
      </g>
      <g id="Group_251" data-name="Group 251" transform="translate(11.776 0)">
        <path id="Path_384" data-name="Path 384" d="M22334.777,970.967h-7.873l3.928,6.405Z" transform="translate(-22326.904 -964.58)" fill="#b1002b"/>
        <path id="Path_383" data-name="Path 383" d="M0,6.405H7.872L3.947,0Z" transform="translate(0)" fill="#8a0454"/>
      </g>
    </g>
    <path id="Path_1" data-name="Path 1" d="M21.82-75.751a2.9,2.9,0,0,0,2.122-2.9c0-2.1-1.651-3.247-4.372-3.247h-5.3v12.7h5.659c3.12,0,4.681-1.215,4.681-3.356A3.055,3.055,0,0,0,21.82-75.751ZM19.534-81.1c2.195,0,3.465.853,3.465,2.521,0,1.687-1.27,2.54-3.465,2.54H15.2V-81.1Zm.4,11.1H15.2v-5.242h4.734c2.431,0,3.755.8,3.755,2.612,0,1.831-1.325,2.63-3.755,2.63Zm6.929-.036v-5.205h6.766v-.816H26.863v-5.006h7.564V-81.9h-8.49v12.7H34.7v-.834Zm19.1.835-3.174-4.444a3.9,3.9,0,0,0,2.975-3.973c0-2.685-1.922-4.281-5.115-4.281H36.1v12.7h.925v-4.154h3.628a8.962,8.962,0,0,0,1.233-.091L44.911-69.2Zm-8.943-4.97v-6.893h3.628c2.721,0,4.172,1.252,4.172,3.446,0,2.177-1.451,3.446-4.172,3.446ZM56.412-69.2h1.125l-5.968-6.929L57.156-81.9H56.031L48.1-73.737V-81.9h-.925v12.7H48.1V-72.54l2.848-2.92Zm2.467-.834v-5.206h6.766v-.816H58.879v-5.006h7.564V-81.9H57.954v12.7h8.761v-.834Z" transform="translate(574.771 625.683)"/>
    <path id="Path_2" data-name="Path 2" d="M11.293-69.993h1.9l-5.768-12.7h-1.8l-5.75,12.7H1.751l1.4-3.174H9.9Zm-7.51-4.626,2.739-6.222,2.739,6.222Zm12.643,4.771c2.594,0,3.973-1.4,3.973-4.226v-8.616H14.014v1.578H18.6v7.129c0,1.705-.744,2.576-2.177,2.576a3.167,3.167,0,0,1-2.648-1.506L12.726-71.68A4.426,4.426,0,0,0,16.426-69.848Zm16.325-.145h1.9l-5.768-12.7h-1.8l-5.75,12.7H23.21l1.4-3.174h6.748Zm-7.51-4.626,2.739-6.222,2.739,6.222Zm19.845-8.072v9.469l-7.619-9.469H35.98v12.7h1.814v-9.469l7.619,9.469H46.9v-12.7Zm8.761,12.843c3.356,0,4.916-1.669,4.916-3.61,0-4.662-7.691-2.721-7.691-5.823,0-1.106.925-2.013,3.084-2.013a6.558,6.558,0,0,1,3.483,1.034l.6-1.451a7.47,7.47,0,0,0-4.081-1.125c-3.338,0-4.861,1.669-4.861,3.628,0,4.716,7.691,2.757,7.691,5.859,0,1.107-.943,1.959-3.138,1.959a6.535,6.535,0,0,1-4.19-1.469l-.671,1.415A7.539,7.539,0,0,0,53.848-69.848Z" transform="translate(642.744 626.474)"/>
  </g>
</svg>
